<svg id="GW" xmlns="http://www.w3.org/2000/svg" viewBox="0 0 144 109.59"><defs><style>.cls-1{fill:#fff;}.cls-2{fill:#c8b18b;}</style></defs><title>logo_thegwu_white</title><path class="cls-1" d="M9.55,107.72l-2.83-7-2.82,7H3.51l-3.34-11H1.36L3.84,105l2.71-6.71h.39L9.64,105l2.46-8.24h1.16l-3.32,11Zm12.87-.08-1.27-3H16.22l-1.28,3H13.71l4.8-11h.39l4.81,11Zm-5.77-4h4.08l-2-4.79Zm8.7,2.42h0a6.37,6.37,0,0,0,2.88.69c1.38,0,2.19-.72,2.19-1.89s-.85-1.65-2.51-2.36c-1.34-.58-2.73-1.2-2.73-3s1.28-2.94,3.36-2.94a7,7,0,0,1,2.3.38v1.16h0a7.07,7.07,0,0,0-2.3-.43c-1.32,0-2.12.62-2.12,1.71s.89,1.51,2.14,2c1.45.62,3.1,1.26,3.1,3.31a3.11,3.11,0,0,1-3.43,3.11,7.35,7.35,0,0,1-2.9-.58Zm16.76,1.6v-5H36.28v5h-1.2V96.73h1.2v4.83h5.83V96.73h1.2v10.9Zm5.39,0V96.73h1.2v10.9Zm13.33,0L54,99.32v8.32H52.89V96.7h.48L60.19,105V96.73h1.12v10.94Zm12.73-4.39H70.68v-1.12h4.06v4.39a6.29,6.29,0,0,1-4,1.28,5.64,5.64,0,1,1,0-11.28,8,8,0,0,1,3.42.72v1.18h0a7.78,7.78,0,0,0-3.39-.79,4.32,4.32,0,0,0-4.59,4.53,4.5,4.5,0,0,0,4.56,4.55,5.12,5.12,0,0,0,2.79-.73Zm6.76,4.36V97.81H76.68V96.73h8.47v1.08H81.51v9.82Zm6.1-5.45a5.53,5.53,0,0,1,5.5-5.64,5.43,5.43,0,0,1,5.37,5.64,5.51,5.51,0,0,1-5.48,5.62A5.43,5.43,0,0,1,86.43,102.19Zm9.58,0c0-2.58-1.71-4.56-4.13-4.56a4.58,4.58,0,0,0,0,9.13C94.3,106.75,96,104.75,96,102.19Zm12.85,5.48L102,99.32v8.32h-1.11V96.7h.47l6.82,8.35V96.73h1.12v10.94Zm4.49,1.92h-.72l.38-3.47h1.36v.42Zm9.25-12.86h2.87c4.06,0,6.21,2.52,6.21,5.45s-2.16,5.45-6.21,5.45H122.6Zm2.87,1.06h-1.69v8.78h1.69c3.32,0,4.92-1.84,4.92-4.39S128.77,97.8,125.47,97.8Zm18.07,8.33v1.14a7.48,7.48,0,0,1-3,.56,5.55,5.55,0,0,1-5.86-5.63,5.62,5.62,0,0,1,5.86-5.64,7.45,7.45,0,0,1,3,.56v1.14h0a7.29,7.29,0,0,0-3-.59,4.29,4.29,0,0,0-4.55,4.53,4.35,4.35,0,0,0,4.57,4.53,7.26,7.26,0,0,0,2.94-.59ZM7.91,26.77H5.37V14.27H.51V12H12.77v2.31H7.91Zm20.41,0H25.78V20.4H18.63v6.37H16.11V12h2.52v6.17h7.15V12h2.54Zm14.9,0H33.34V12h9.88v2.31H35.88v3.86h6.91v2.22H35.88v4.1h7.33ZM62.47,21H59V18.82h5.94v6.94a10.72,10.72,0,0,1-5.39,1.37c-4.46,0-8.1-3.11-8.1-7.74,0-4.9,3.85-7.78,8.44-7.78a12.43,12.43,0,0,1,4,.57v2.43a11.51,11.51,0,0,0-4-.68c-3.75,0-5.73,2.33-5.73,5.44a5.29,5.29,0,0,0,5.52,5.52,7.24,7.24,0,0,0,2.83-.49Zm16.66,5.73H69.26V12h9.87v2.31H71.79v3.86h6.92v2.22H71.79v4.1h7.34Zm3.46-7.4a7.53,7.53,0,0,1,7.62-7.76,7.42,7.42,0,0,1,7.48,7.76,7.54,7.54,0,0,1-7.61,7.76A7.42,7.42,0,0,1,82.6,19.37Zm12.39,0c0-3.13-2-5.52-4.86-5.52s-4.82,2.39-4.82,5.52,2,5.52,4.86,5.52S95,22.49,95,19.37Zm9.49,7.4h-2.54V12h4.67c3.9,0,5.92,2,5.92,4.82a4.47,4.47,0,0,1-3,4.34l3.74,5.65h-3l-3.21-5.09h-2.67Zm2.29-7.33c2.09,0,3.1-1,3.1-2.58s-1-2.61-3.1-2.61h-2.29v5.19ZM126.83,21h-3.51V18.82h5.94v6.94a10.73,10.73,0,0,1-5.39,1.37c-4.46,0-8.1-3.11-8.1-7.74,0-4.9,3.85-7.78,8.44-7.78a12.38,12.38,0,0,1,4,.57v2.43a11.53,11.53,0,0,0-4-.68c-3.75,0-5.74,2.33-5.74,5.44A5.29,5.29,0,0,0,124,24.89a7.25,7.25,0,0,0,2.84-.49Zm16.66,5.73h-9.87V12h9.87v2.31h-7.33v3.86h6.91v2.22h-6.91v4.1h7.33ZM13,69c0,3.85-2.64,6.13-6.28,6.13S.53,72.95.53,69V60.12H3.07v8.79c0,2.6,1.38,4,3.72,4s3.7-1.42,3.7-4V60.12H13Zm18.54,6H30.7l-9.24-9.81v9.71H19V60h.86l9.24,9.85V60.12h2.41Zm8.77-.1H37.8V60.12h2.54Zm10.84.1-6.94-14.9H47l4.52,10,4.55-10h2.69L51.83,75Zm21.63-.1H62.68V60.12H72.81v2.3H65.22v3.87h7.17v2.22H65.22v4.1h7.59Zm8.2,0H78.47V60.12h4.84c4,0,6,2,6,4.81a4.46,4.46,0,0,1-3,4.34l3.85,5.65h-3l-3.32-5.1H81Zm2.45-7.34c2.16,0,3.22-1,3.22-2.58s-1.06-2.6-3.22-2.6H81v5.18Zm10.4,4.5a10.59,10.59,0,0,0,4.29,1c1.86,0,2.52-1,2.52-2.12,0-1.31-1-1.67-3.21-2.56-1.88-.74-3.89-1.67-3.89-4.19s2-4.42,5.22-4.42a10.48,10.48,0,0,1,3.38.59V62.8h0A9.45,9.45,0,0,0,98.63,62c-1.71,0-2.49.81-2.49,1.88s.89,1.5,3.11,2.35c1.92.74,4,1.67,4,4.39,0,2.39-1.73,4.65-5.25,4.65a11.61,11.61,0,0,1-4.18-.74V72.08Zm17.21,2.83h-2.53V60.12h2.53Zm11.95,0h-2.53V62.42h-4.93v-2.3h12.39v2.3H123Zm12.72,0V68.85l-5.54-8.73h2.92L137,66.65l3.89-6.53h2.86l-5.54,8.75v6Zm-123-24L9,42.81,5.35,50.94H4.69L.11,36h2.6l2.75,9.41L8.86,38h.43l3.44,7.46L15.5,36h2.44l-4.55,14.9Zm15.87-.1L27.35,47.9h-6l-1.22,2.94H17.54L24.1,35.93h.65L31.3,50.84Zm-6.32-5.05h4.19l-2.1-4.95ZM33.3,48a8.34,8.34,0,0,0,3.77,1,2,2,0,0,0,2.24-2.11c0-1.35-1-1.73-2.9-2.55-1.73-.74-3.6-1.69-3.6-4.21s1.82-4.4,4.82-4.4a9.17,9.17,0,0,1,3.17.59v2.45h0a7.79,7.79,0,0,0-3.15-.8c-1.54,0-2.24.8-2.24,1.88s1,1.61,2.71,2.33,3.79,1.69,3.79,4.44a4.52,4.52,0,0,1-4.82,4.63,9.67,9.67,0,0,1-3.79-.74V48ZM57,50.84H54.48V44.48H47.8v6.36H45.28V36H47.8v6.17h6.69V36H57Zm7.13,0H61.62V36h2.53Zm16.54.1h-.86L71.16,41.3v9.54H68.75V35.93h.87l8.67,9.68V36h2.41Zm14.62-5.83H91.93V42.89h5.81v6.94a10.36,10.36,0,0,1-5.28,1.37,7.63,7.63,0,0,1-7.95-7.74c0-4.9,3.76-7.78,8.26-7.78a12.16,12.16,0,0,1,3.92.57v2.41h0A11.36,11.36,0,0,0,92.8,38c-3.64,0-5.59,2.33-5.59,5.43A5.21,5.21,0,0,0,92.57,49a6.89,6.89,0,0,0,2.75-.49Zm11.55,5.73h-2.54V38.34H99.62V36h12v2.3h-4.72Zm6.06-7.4a7.47,7.47,0,0,1,7.49-7.76c4.25,0,7.36,3.32,7.36,7.76a7.47,7.47,0,0,1-7.48,7.76C116,51.2,112.93,47.88,112.93,43.44Zm12.14,0c0-3.12-1.95-5.52-4.74-5.52s-4.69,2.39-4.69,5.52S117.58,49,120.37,49,125.07,46.57,125.07,43.44Zm18.47,7.51h-.86L134,41.3v9.54h-2.41V35.93h.87l8.67,9.68V36h2.41Z"/><path class="cls-2" d="M0,87V84.7H144V87ZM0,2.32V0H144V2.32Z"/></svg>